<svg width="60" height="60" viewBox="0 0 60 60" fill="none" xmlns="http://www.w3.org/2000/svg">
<rect width="60" height="60" rx="5.59633" fill="#DE2F14"/>
<path fill-rule="evenodd" clip-rule="evenodd" d="M27.4539 24.388C27.8716 23.9369 28.5778 23.9154 29.0223 24.3402L39.5594 34.4154C39.7703 34.6171 39.8927 34.894 39.8992 35.1859L40.0203 40.557C40.0423 41.5375 38.8669 42.0551 38.158 41.3773L24.9207 28.72C24.4863 28.3047 24.4646 27.6172 24.8729 27.1761L27.4539 24.388ZM23.2283 28.8011C23.154 29.1606 23.2604 29.5488 23.5447 29.8206L27.2 33.3157L21.4734 39.0433C21.267 39.2496 20.9869 39.3655 20.6951 39.3655H15.3231C14.3425 39.3655 13.851 38.1803 14.5438 37.4866L23.2283 28.8011ZM33.2342 18.6995C33.6519 18.2485 34.3581 18.2269 34.8026 18.6517L45.3397 28.7269C45.5505 28.9286 45.6729 29.2056 45.6795 29.4974L45.7996 34.8685C45.8216 35.849 44.6472 36.3666 43.9383 35.6888L30.7 23.0316C30.2659 22.6163 30.2452 21.9297 30.6531 21.4886L33.2342 18.6995Z" fill="#EBEBEB"/>
</svg>
