<svg width="1783" height="287" viewBox="0 0 1783 287" fill="none" xmlns="http://www.w3.org/2000/svg">
<path d="M876.111 173V164.273H881.343V165.21H877.167V168.159H880.951V169.097H877.167V173H876.111ZM885.281 173.136C884.65 173.136 884.106 172.997 883.649 172.719C883.194 172.438 882.843 172.045 882.596 171.543C882.352 171.037 882.23 170.449 882.23 169.778C882.23 169.108 882.352 168.517 882.596 168.006C882.843 167.491 883.187 167.091 883.628 166.804C884.071 166.514 884.588 166.369 885.179 166.369C885.52 166.369 885.856 166.426 886.189 166.54C886.521 166.653 886.824 166.838 887.096 167.094C887.369 167.347 887.586 167.682 887.748 168.099C887.91 168.517 887.991 169.031 887.991 169.642V170.068H882.946V169.199H886.968C886.968 168.83 886.895 168.5 886.747 168.21C886.602 167.92 886.395 167.692 886.125 167.524C885.858 167.357 885.542 167.273 885.179 167.273C884.778 167.273 884.432 167.372 884.139 167.571C883.849 167.767 883.626 168.023 883.47 168.338C883.314 168.653 883.236 168.991 883.236 169.352V169.932C883.236 170.426 883.321 170.845 883.491 171.189C883.665 171.53 883.905 171.79 884.211 171.969C884.518 172.145 884.875 172.233 885.281 172.233C885.545 172.233 885.784 172.196 885.997 172.122C886.213 172.045 886.399 171.932 886.555 171.781C886.711 171.628 886.832 171.437 886.917 171.21L887.889 171.483C887.787 171.812 887.615 172.102 887.373 172.352C887.132 172.599 886.834 172.793 886.478 172.932C886.123 173.068 885.724 173.136 885.281 173.136ZM890.527 169.062V173H889.521V164.273H890.527V167.477H890.612C890.765 167.139 890.995 166.871 891.302 166.672C891.612 166.47 892.024 166.369 892.538 166.369C892.984 166.369 893.375 166.459 893.71 166.638C894.045 166.814 894.305 167.085 894.49 167.452C894.677 167.815 894.771 168.278 894.771 168.841V173H893.765V168.909C893.765 168.389 893.63 167.987 893.361 167.703C893.093 167.416 892.723 167.273 892.248 167.273C891.919 167.273 891.623 167.342 891.362 167.482C891.103 167.621 890.899 167.824 890.748 168.091C890.601 168.358 890.527 168.682 890.527 169.062ZM898.537 173.153C898.122 173.153 897.746 173.075 897.408 172.919C897.07 172.76 896.801 172.531 896.602 172.233C896.403 171.932 896.304 171.568 896.304 171.142C896.304 170.767 896.378 170.463 896.526 170.23C896.673 169.994 896.871 169.81 897.118 169.676C897.365 169.543 897.638 169.443 897.936 169.378C898.237 169.31 898.54 169.256 898.844 169.216C899.242 169.165 899.564 169.126 899.811 169.101C900.061 169.072 900.243 169.026 900.357 168.96C900.473 168.895 900.531 168.781 900.531 168.619V168.585C900.531 168.165 900.416 167.838 900.186 167.605C899.959 167.372 899.614 167.256 899.151 167.256C898.671 167.256 898.294 167.361 898.021 167.571C897.749 167.781 897.557 168.006 897.446 168.244L896.492 167.903C896.662 167.506 896.889 167.196 897.173 166.974C897.46 166.75 897.773 166.594 898.111 166.506C898.452 166.415 898.787 166.369 899.117 166.369C899.327 166.369 899.568 166.395 899.841 166.446C900.117 166.494 900.382 166.595 900.638 166.749C900.896 166.902 901.111 167.134 901.281 167.443C901.452 167.753 901.537 168.168 901.537 168.688V173H900.531V172.114H900.48C900.412 172.256 900.298 172.408 900.139 172.57C899.98 172.732 899.769 172.869 899.504 172.983C899.24 173.097 898.918 173.153 898.537 173.153ZM898.69 172.25C899.088 172.25 899.423 172.172 899.696 172.016C899.972 171.859 900.179 171.658 900.318 171.411C900.46 171.163 900.531 170.903 900.531 170.631V169.71C900.489 169.761 900.395 169.808 900.25 169.851C900.108 169.891 899.943 169.926 899.756 169.957C899.571 169.986 899.391 170.011 899.215 170.034C899.041 170.054 898.901 170.071 898.793 170.085C898.531 170.119 898.287 170.175 898.06 170.251C897.835 170.325 897.653 170.437 897.514 170.588C897.378 170.736 897.31 170.937 897.31 171.193C897.31 171.543 897.439 171.807 897.698 171.986C897.959 172.162 898.29 172.25 898.69 172.25ZM903.373 173V166.455H904.344V167.443H904.412C904.532 167.119 904.748 166.857 905.06 166.655C905.373 166.453 905.725 166.352 906.117 166.352C906.191 166.352 906.283 166.354 906.394 166.357C906.505 166.359 906.589 166.364 906.645 166.369V167.392C906.611 167.384 906.533 167.371 906.411 167.354C906.292 167.334 906.165 167.324 906.032 167.324C905.714 167.324 905.429 167.391 905.179 167.524C904.932 167.655 904.736 167.837 904.591 168.07C904.449 168.3 904.378 168.562 904.378 168.858V173H903.373ZM907.837 173V166.455H908.843V173H907.837ZM908.349 165.364C908.153 165.364 907.984 165.297 907.842 165.163C907.703 165.03 907.633 164.869 907.633 164.682C907.633 164.494 907.703 164.334 907.842 164.2C907.984 164.067 908.153 164 908.349 164C908.545 164 908.712 164.067 908.852 164.2C908.994 164.334 909.065 164.494 909.065 164.682C909.065 164.869 908.994 165.03 908.852 165.163C908.712 165.297 908.545 165.364 908.349 165.364Z" fill="white"/>
<path d="M523.893 230V57.9064H627.082V76.393H544.733V134.542H619.351V153.028H544.733V230H523.893ZM685.796 232.689C673.359 232.689 662.631 229.944 653.612 224.454C644.649 218.908 637.73 211.177 632.857 201.262C628.039 191.29 625.63 179.694 625.63 166.473C625.63 153.253 628.039 141.6 632.857 131.517C637.73 121.377 644.509 113.478 653.192 107.82C661.931 102.106 672.127 99.2492 683.779 99.2492C690.501 99.2492 697.14 100.37 703.694 102.61C710.248 104.851 716.215 108.492 721.592 113.534C726.97 118.52 731.256 125.13 734.449 133.365C737.642 141.6 739.239 151.74 739.239 163.784V172.187H639.747V155.045H719.072C719.072 147.763 717.615 141.264 714.702 135.55C711.845 129.836 707.756 125.327 702.434 122.021C697.168 118.716 690.95 117.064 683.779 117.064C675.88 117.064 669.046 119.024 663.276 122.946C657.562 126.811 653.164 131.853 650.083 138.071C647.002 144.289 645.461 150.956 645.461 158.07V169.498C645.461 179.246 647.142 187.509 650.503 194.287C653.92 201.01 658.654 206.135 664.704 209.665C670.754 213.138 677.785 214.875 685.796 214.875C691.006 214.875 695.711 214.146 699.913 212.69C704.17 211.177 707.84 208.936 710.921 205.967C714.002 202.942 716.383 199.189 718.063 194.707L737.222 200.085C735.205 206.584 731.816 212.298 727.054 217.227C722.293 222.101 716.411 225.911 709.408 228.656C702.406 231.344 694.535 232.689 685.796 232.689ZM770.306 152.356V230H750.475V57.9064H770.306V121.097H771.987C775.012 114.431 779.55 109.137 785.6 105.215C791.706 101.238 799.829 99.2492 809.969 99.2492C818.764 99.2492 826.467 101.014 833.077 104.543C839.687 108.016 844.813 113.366 848.454 120.593C852.152 127.763 854 136.895 854 147.987V230H834.169V149.331C834.169 139.079 831.508 131.153 826.186 125.551C820.921 119.893 813.61 117.064 804.255 117.064C797.756 117.064 791.93 118.436 786.776 121.181C781.678 123.926 777.645 127.931 774.676 133.197C771.763 138.463 770.306 144.849 770.306 152.356ZM909.332 233.025C901.153 233.025 893.73 231.485 887.064 228.403C880.397 225.266 875.103 220.757 871.182 214.875C867.261 208.936 865.3 201.766 865.3 193.363C865.3 185.968 866.756 179.974 869.669 175.38C872.582 170.731 876.476 167.089 881.35 164.457C886.223 161.824 891.601 159.863 897.483 158.574C903.422 157.23 909.388 156.166 915.382 155.381C923.225 154.373 929.583 153.617 934.457 153.112C939.386 152.552 942.972 151.628 945.213 150.339C947.509 149.051 948.658 146.81 948.658 143.617V142.945C948.658 134.654 946.389 128.212 941.851 123.618C937.37 119.024 930.563 116.727 921.432 116.727C911.965 116.727 904.542 118.8 899.164 122.946C893.786 127.091 890.005 131.517 887.82 136.222L868.997 129.5C872.358 121.657 876.84 115.551 882.442 111.181C888.1 106.756 894.262 103.675 900.929 101.938C907.651 100.145 914.261 99.2492 920.76 99.2492C924.905 99.2492 929.667 99.7533 935.045 100.762C940.479 101.714 945.717 103.703 950.758 106.728C955.856 109.753 960.086 114.319 963.447 120.425C966.808 126.531 968.489 134.71 968.489 144.962V230H948.658V212.522H947.649C946.305 215.323 944.064 218.32 940.927 221.513C937.79 224.706 933.616 227.423 928.406 229.664C923.197 231.905 916.838 233.025 909.332 233.025ZM912.357 215.211C920.2 215.211 926.81 213.67 932.188 210.589C937.622 207.508 941.711 203.531 944.456 198.657C947.257 193.783 948.658 188.657 948.658 183.279V165.129C947.817 166.137 945.969 167.061 943.112 167.902C940.311 168.686 937.062 169.386 933.364 170.003C929.723 170.563 926.166 171.067 922.692 171.515C919.275 171.907 916.502 172.243 914.373 172.523C909.22 173.196 904.402 174.288 899.92 175.801C895.495 177.257 891.909 179.47 889.164 182.439C886.475 185.352 885.131 189.329 885.131 194.371C885.131 201.262 887.68 206.472 892.778 210.001C897.932 213.474 904.458 215.211 912.357 215.211ZM985.755 230V100.93H1004.91V120.425H1006.26C1008.61 114.038 1012.87 108.857 1019.03 104.879C1025.19 100.902 1032.14 98.913 1039.87 98.913C1041.33 98.913 1043.15 98.9411 1045.33 98.9971C1047.52 99.0531 1049.17 99.1371 1050.29 99.2492V119.416C1049.62 119.248 1048.08 118.996 1045.67 118.66C1043.32 118.268 1040.82 118.072 1038.19 118.072C1031.92 118.072 1026.31 119.388 1021.38 122.021C1016.51 124.598 1012.64 128.184 1009.79 132.777C1006.99 137.315 1005.59 142.497 1005.59 148.323V230H985.755ZM1054.87 230V100.93H1074.7V230H1054.87ZM1064.95 79.4181C1061.08 79.4181 1057.75 78.1016 1054.95 75.4686C1052.21 72.8357 1050.83 69.6706 1050.83 65.9733C1050.83 62.2759 1052.21 59.1108 1054.95 56.4778C1057.75 53.8449 1061.08 52.5284 1064.95 52.5284C1068.82 52.5284 1072.12 53.8449 1074.87 56.4778C1077.67 59.1108 1079.07 62.2759 1079.07 65.9733C1079.07 69.6706 1077.67 72.8357 1074.87 75.4686C1072.12 78.1016 1068.82 79.4181 1064.95 79.4181ZM1236.51 100.93C1235.51 92.4147 1231.42 85.8044 1224.25 81.0987C1217.07 76.393 1208.28 74.0401 1197.86 74.0401C1190.24 74.0401 1183.57 75.2726 1177.86 77.7375C1172.2 80.2023 1167.78 83.5916 1164.58 87.9051C1161.45 92.2186 1159.88 97.1204 1159.88 102.61C1159.88 107.204 1160.97 111.153 1163.16 114.459C1165.4 117.708 1168.25 120.425 1171.73 122.61C1175.2 124.738 1178.84 126.503 1182.65 127.903C1186.46 129.248 1189.96 130.34 1193.15 131.181L1210.63 135.886C1215.11 137.063 1220.1 138.687 1225.59 140.76C1231.14 142.833 1236.43 145.662 1241.47 149.247C1246.57 152.776 1250.77 157.314 1254.08 162.86C1257.38 168.406 1259.03 175.212 1259.03 183.279C1259.03 192.579 1256.6 200.982 1251.72 208.488C1246.91 215.995 1239.85 221.961 1230.55 226.387C1221.3 230.812 1210.07 233.025 1196.85 233.025C1184.53 233.025 1173.86 231.036 1164.84 227.059C1155.87 223.082 1148.81 217.536 1143.66 210.421C1138.56 203.306 1135.68 195.043 1135.01 185.632H1156.52C1157.08 192.13 1159.26 197.508 1163.07 201.766C1166.94 205.967 1171.81 209.105 1177.69 211.177C1183.63 213.194 1190.02 214.202 1196.85 214.202C1204.81 214.202 1211.95 212.914 1218.28 210.337C1224.61 207.704 1229.62 204.063 1233.32 199.413C1237.02 194.707 1238.87 189.217 1238.87 182.943C1238.87 177.229 1237.27 172.579 1234.08 168.994C1230.88 165.409 1226.68 162.496 1221.47 160.255C1216.26 158.014 1210.63 156.054 1204.58 154.373L1183.41 148.323C1169.96 144.457 1159.32 138.939 1151.48 131.769C1143.63 124.598 1139.71 115.215 1139.71 103.619C1139.71 93.9833 1142.32 85.5803 1147.53 78.4097C1152.79 71.1831 1159.85 65.5811 1168.7 61.6037C1177.61 57.5702 1187.55 55.5535 1198.53 55.5535C1209.62 55.5535 1219.48 57.5422 1228.11 61.5196C1236.74 65.441 1243.57 70.819 1248.61 77.6534C1253.71 84.4879 1256.4 92.2467 1256.68 100.93H1236.51ZM1327.81 100.93V117.736H1260.92V100.93H1327.81ZM1280.42 70.0067H1300.25V193.027C1300.25 198.629 1301.06 202.83 1302.68 205.631C1304.37 208.376 1306.49 210.225 1309.07 211.177C1311.7 212.074 1314.48 212.522 1317.39 212.522C1319.58 212.522 1321.37 212.41 1322.77 212.186C1324.17 211.906 1325.29 211.681 1326.13 211.513L1330.16 229.328C1328.82 229.832 1326.94 230.336 1324.53 230.84C1322.12 231.401 1319.07 231.681 1315.37 231.681C1309.77 231.681 1304.28 230.476 1298.9 228.067C1293.58 225.658 1289.16 221.989 1285.63 217.059C1282.15 212.13 1280.42 205.911 1280.42 198.405V70.0067ZM1420.05 177.229V100.93H1439.88V230H1420.05V208.152H1418.71C1415.68 214.707 1410.98 220.281 1404.59 224.874C1398.2 229.412 1390.14 231.681 1380.39 231.681C1372.32 231.681 1365.15 229.916 1358.88 226.387C1352.6 222.801 1347.67 217.423 1344.09 210.253C1340.5 203.026 1338.71 193.923 1338.71 182.943V100.93H1358.54V181.599C1358.54 191.01 1361.17 198.517 1366.44 204.119C1371.76 209.721 1378.54 212.522 1386.78 212.522C1391.71 212.522 1396.72 211.261 1401.82 208.74C1406.97 206.219 1411.28 202.354 1414.76 197.144C1418.29 191.934 1420.05 185.296 1420.05 177.229ZM1506.01 232.689C1495.26 232.689 1485.76 229.972 1477.53 224.538C1469.29 219.048 1462.85 211.317 1458.2 201.346C1453.55 191.318 1451.22 179.47 1451.22 165.801C1451.22 152.244 1453.55 140.48 1458.2 130.508C1462.85 120.537 1469.32 112.834 1477.61 107.4C1485.9 101.966 1495.48 99.2492 1506.35 99.2492C1514.75 99.2492 1521.39 100.65 1526.26 103.451C1531.19 106.196 1534.95 109.333 1537.52 112.862C1540.16 116.335 1542.2 119.192 1543.66 121.433H1545.34V57.9064H1565.17V230H1546.01V210.169H1543.66C1542.2 212.522 1540.13 215.491 1537.44 219.076C1534.75 222.605 1530.91 225.77 1525.93 228.571C1520.94 231.316 1514.3 232.689 1506.01 232.689ZM1508.7 214.875C1516.66 214.875 1523.38 212.802 1528.87 208.656C1534.36 204.455 1538.53 198.657 1541.39 191.262C1544.25 183.811 1545.67 175.212 1545.67 165.465C1545.67 155.829 1544.27 147.398 1541.47 140.172C1538.67 132.889 1534.53 127.231 1529.04 123.198C1523.55 119.108 1516.77 117.064 1508.7 117.064C1500.3 117.064 1493.3 119.22 1487.69 123.534C1482.15 127.791 1477.97 133.589 1475.17 140.928C1472.43 148.211 1471.06 156.39 1471.06 165.465C1471.06 174.652 1472.46 182.999 1475.26 190.506C1478.11 197.957 1482.32 203.895 1487.86 208.32C1493.46 212.69 1500.41 214.875 1508.7 214.875ZM1585.31 230V100.93H1605.14V230H1585.31ZM1595.4 79.4181C1591.53 79.4181 1588.2 78.1016 1585.4 75.4686C1582.65 72.8357 1581.28 69.6706 1581.28 65.9733C1581.28 62.2759 1582.65 59.1108 1585.4 56.4778C1588.2 53.8449 1591.53 52.5284 1595.4 52.5284C1599.26 52.5284 1602.57 53.8449 1605.31 56.4778C1608.11 59.1108 1609.51 62.2759 1609.51 65.9733C1609.51 69.6706 1608.11 72.8357 1605.31 75.4686C1602.57 78.1016 1599.26 79.4181 1595.4 79.4181ZM1674.97 232.689C1663.32 232.689 1653.09 229.916 1644.3 224.37C1635.56 218.824 1628.73 211.065 1623.8 201.094C1618.92 191.122 1616.49 179.47 1616.49 166.137C1616.49 152.692 1618.92 140.956 1623.8 130.929C1628.73 120.901 1635.56 113.114 1644.3 107.568C1653.09 102.022 1663.32 99.2492 1674.97 99.2492C1686.62 99.2492 1696.82 102.022 1705.56 107.568C1714.35 113.114 1721.19 120.901 1726.06 130.929C1730.99 140.956 1733.46 152.692 1733.46 166.137C1733.46 179.47 1730.99 191.122 1726.06 201.094C1721.19 211.065 1714.35 218.824 1705.56 224.37C1696.82 229.916 1686.62 232.689 1674.97 232.689ZM1674.97 214.875C1683.82 214.875 1691.1 212.606 1696.82 208.068C1702.53 203.531 1706.76 197.564 1709.51 190.17C1712.25 182.775 1713.62 174.764 1713.62 166.137C1713.62 157.51 1712.25 149.471 1709.51 142.02C1706.76 134.57 1702.53 128.548 1696.82 123.954C1691.1 119.36 1683.82 117.064 1674.97 117.064C1666.12 117.064 1658.84 119.36 1653.12 123.954C1647.41 128.548 1643.18 134.57 1640.43 142.02C1637.69 149.471 1636.32 157.51 1636.32 166.137C1636.32 174.764 1637.69 182.775 1640.43 190.17C1643.18 197.564 1647.41 203.531 1653.12 208.068C1658.84 212.606 1666.12 214.875 1674.97 214.875Z" fill="#0F0D0D"/>
<path d="M1758.69 88.5674V74.5224H1765.81C1766.38 74.5224 1767 74.6873 1767.67 75.0172C1768.35 75.3344 1768.92 75.8292 1769.39 76.5016C1769.87 77.1614 1770.11 77.9987 1770.11 79.0137C1770.11 80.0414 1769.86 80.9169 1769.37 81.6401C1768.87 82.3506 1768.27 82.8898 1767.56 83.2577C1766.86 83.6256 1766.2 83.8096 1765.58 83.8096H1760.44V81.5259H1764.63C1765.05 81.5259 1765.5 81.3165 1765.98 80.8978C1766.48 80.4791 1766.72 79.8511 1766.72 79.0137C1766.72 78.151 1766.48 77.5674 1765.98 77.2629C1765.5 76.9584 1765.07 76.8061 1764.71 76.8061H1761.77V88.5674H1758.69ZM1767.18 81.9446L1770.68 88.5674H1767.29L1763.87 81.9446H1767.18ZM1764.02 96.9411C1761.91 96.9411 1759.94 96.5478 1758.1 95.7612C1756.26 94.9746 1754.64 93.8835 1753.25 92.4878C1751.85 91.0922 1750.76 89.4746 1749.98 87.6349C1749.19 85.7952 1748.8 83.8223 1748.8 81.7162C1748.8 79.6101 1749.19 77.6372 1749.98 75.7975C1750.76 73.9578 1751.85 72.3401 1753.25 70.9445C1754.64 69.5489 1756.26 68.4578 1758.1 67.6711C1759.94 66.8845 1761.91 66.4912 1764.02 66.4912C1766.13 66.4912 1768.1 66.8845 1769.94 67.6711C1771.78 68.4578 1773.4 69.5489 1774.79 70.9445C1776.19 72.3401 1777.28 73.9578 1778.07 75.7975C1778.85 77.6372 1779.25 79.6101 1779.25 81.7162C1779.25 83.8223 1778.85 85.7952 1778.07 87.6349C1777.28 89.4746 1776.19 91.0922 1774.79 92.4878C1773.4 93.8835 1771.78 94.9746 1769.94 95.7612C1768.1 96.5478 1766.13 96.9411 1764.02 96.9411ZM1764.02 93.2872C1766.15 93.2872 1768.09 92.767 1769.84 91.7266C1771.59 90.6862 1772.99 89.2906 1774.03 87.5397C1775.07 85.7889 1775.59 83.8477 1775.59 81.7162C1775.59 79.5847 1775.07 77.6435 1774.03 75.8926C1772.99 74.1418 1771.59 72.7461 1769.84 71.7058C1768.09 70.6654 1766.15 70.1452 1764.02 70.1452C1761.89 70.1452 1759.95 70.6654 1758.2 71.7058C1756.45 72.7461 1755.05 74.1418 1754.01 75.8926C1752.97 77.6435 1752.45 79.5847 1752.45 81.7162C1752.45 83.8477 1752.97 85.7889 1754.01 87.5397C1755.05 89.2906 1756.45 90.6862 1758.2 91.7266C1759.95 92.767 1761.89 93.2872 1764.02 93.2872Z" fill="#0F0D0D"/>
<path d="M144.257 69.7422C148.81 64.8225 156.511 64.5881 161.356 69.2207L276.209 179.034C278.509 181.234 279.842 184.257 279.913 187.438L281.227 245.982C281.466 256.67 268.664 262.313 260.937 254.925L116.641 116.96C111.905 112.432 111.677 104.943 116.127 100.135L144.257 69.7422ZM98.1777 117.874C97.379 121.785 98.5488 126.004 101.641 128.96L141.491 167.062L79.0684 229.485C76.818 231.736 73.7655 233 70.583 233H12.0234C1.33286 233 -4.02042 220.074 3.53906 212.515L98.1777 117.874ZM207.257 7.74219C211.81 2.82259 219.511 2.5881 224.356 7.2207L339.209 117.034C341.509 119.234 342.842 122.257 342.913 125.438L344.227 183.982C344.466 194.671 331.664 200.313 323.937 192.925L179.641 54.96C174.905 50.4324 174.677 42.9439 179.127 38.1357L207.257 7.74219Z" fill="url(#paint0_linear_289_237)"/>
<defs>
<linearGradient id="paint0_linear_289_237" x1="150.808" y1="78.7522" x2="325.333" y2="51.4253" gradientUnits="userSpaceOnUse">
<stop stop-color="#DE2F14"/>
<stop offset="1" stop-color="#FF7700"/>
</linearGradient>
</defs>
</svg>
